<svg role="img" id="age-icon-11" aria-hidden="true" focusable="false" xmlns="http://www.w3.org/2000/svg" xmlns:xlink="http://www.w3.org/1999/xlink" width="80" height="80" viewBox="0 0 80 80">
    <defs>
        <path id="prefix__a" d="M0 0.023L36.364 0.023 36.364 29.216 0 29.216z"/>
        <path id="prefix__c" d="M0 35.959L36.364 35.959 36.364 0 0 0z"/>
    </defs>
    <g fill="none" fill-rule="evenodd">
        <circle cx="40" cy="40" r="40" fill="#FFF" fill-rule="nonzero"/>
        <circle cx="40" cy="40" r="38" fill="#E5F6F6" fill-rule="nonzero"/>
        <g transform="translate(22 22)">
            <g transform="translate(0 6.743)">
                <mask id="prefix__b" fill="#fff">
                    <use xlink:href="#prefix__a"/>
                </mask>
                <path fill="#FFF" d="M19.381 27.138c-.045-1.106-.076-2.987 0-3.514l.092-.647-.047 5.22-.045-1.06zm16.655-3.514l.328-2.326-2.344.17h-.012c-.08.007-.158.01-.24.01-.307 0-.418-.036-.443-.046-.144-.162-.34-.993-.446-1.442l-.055-.234c-.34-1.425-.29-9.661-.268-13.178.014-2.262.022-3.803-.006-4.579-.007-.2-.058-.593-.316-.98-.336-.506-.893-.808-1.57-.85L30.37.151h-.008C30.138.139 29.78.12 29.344.1c-.359-.018-1.602-.074-2.78-.074-1.65 0-2.699.047-3.342.964-.139.174-.844.981-2.1 2.402l-.343.389c-.885 1.002-1.8 2.038-2.545 2.903-.063.073-.141.159-.225.25-.648.71-1.734 1.898-1.23 3.263.592 1.608 2.899 3.13 4.223 3.895l.987.567.967-.6.011-.006c.213-.135.422-.276.628-.42.025 2.408.054 6.08-.068 6.89l-.008.065c-.039.265-.095.643-.155.79-.054.044-.157.105-.25.157-.382.041-1.129.117-1.936.196l-1.554.154.083-.588-2.344.17h-.008c-.086.007-.166.01-.244.01-.307 0-.417-.036-.443-.046-.144-.162-.34-.993-.445-1.442l-.055-.234c-.33-1.378-.29-9.178-.27-12.926v-.252c.015-2.262.023-3.803-.004-4.579-.031-.826-.633-1.752-1.882-1.83l-.294-.018h-.008C13.486.139 13.13.12 12.693.1 11.983.066 10.88.027 9.916.023h-.005C8.263.023 7.213.07 6.57.987c-.139.173-.845.98-2.1 2.401l-.346.392c-.884 1.001-1.798 2.036-2.542 2.9-.062.072-.14.158-.222.248-.648.71-1.731 1.897-1.233 3.265.595 1.617 2.9 3.135 4.223 3.895l.99.57.552-.347.418-.262c.212-.134.42-.275.628-.42.025 2.408.055 6.085-.068 6.895l-.008.065c-.039.265-.095.643-.154.79-.046.037-.13.09-.254.156-.38.042-1.128.118-1.937.197l-1.699.169-.057 7.18 1.88.03.012.001.178.003c3.608.065 6.79.101 8.96.101 3.577 0 3.892-.086 4.196-.17l1.434-.395-.004.43 1.882.03.011.001.178.003c3.608.065 6.79.101 8.96.101 3.577 0 3.891-.086 4.196-.17l1.456-.401-.063-1.508c-.044-1.105-.075-2.986 0-3.513z" mask="url(#prefix__b)"/>
            </g>
            <mask id="prefix__d" fill="#fff">
                <use xlink:href="#prefix__c"/>
            </mask>
            <path fill="#000" d="M17.916 7.033L18.997 7.033 18.997 5.952 17.916 5.952z" mask="url(#prefix__d)"/>
            <path fill="#FFDC2D" d="M18.436 0s-.389 2.28-1.56 3.849c-.127.117-.24.253-.335.402-.167.267-.253.58-.258.896 0 .796.561 1.479 1.357 1.755V5.703h1.587v1.199c.796-.276 1.357-.96 1.357-1.755C20.738 3.55 18.436 0 18.436 0" mask="url(#prefix__d)"/>
            <path fill="#00ABA7" d="M9.91 7.851c-1.7 0-2.184.104-2.464.52-.136.181-1.167 1.353-2.162 2.479-.954 1.08-2.04 2.306-2.88 3.283-.516.597-1.575 1.56-1.258 2.429.466 1.266 2.637 2.69 3.745 3.328l.425.245.411-.258c.81-.516 1.57-1.108 2.275-1.764.005.452.01.981.014 1.588.032 2.858.072 6.77-.073 7.729l-.004.04c-.081.557-.158 1.081-.394 1.348-.171.2-.465.362-.764.516-.294.036-1.275.135-2.157.221l-.728.073-.041 5.128.805.014c.054 0 5.373.104 9.131.104 3.428 0 3.727-.082 3.908-.131l.624-.172-.027-.647c-.032-.791-.09-3.003.009-3.708l.14-.995-1.004.072c-.113.009-.222.014-.33.014-1.339 0-1.52-.52-1.945-2.325l-.054-.23c-.367-1.534-.321-8.987-.299-13.437.014-2.103.023-3.763-.004-4.532-.005-.122-.068-.737-.864-.787l-.294-.018c-.249-.014-.601-.032-1.009-.05-.741-.036-1.813-.072-2.731-.077m0 1.135c.904 0 1.954.037 2.677.068l.995.05.104.005c.014.84.005 2.347-.004 4.197-.037 6.345-.037 12.165.33 13.703l.054.23c.403 1.715.755 3.194 3.044 3.198h.036c-.059.936-.014 2.583.005 3.247-.371.028-1.258.06-3.365.06-3.202 0-7.594-.078-8.792-.096l.022-2.998c.76-.077 1.61-.163 1.904-.2l.2-.022.176-.09c.366-.19.787-.42 1.099-.778.452-.52.556-1.235.66-1.927l.005-.04c.144-.968.122-4.152.081-7.906-.01-.692-.014-1.185-.014-1.583l-.022-2.614-1.89 1.8c-.602.56-1.249 1.072-1.936 1.524-.629-.37-1.23-.778-1.8-1.23-.905-.728-1.18-1.176-1.262-1.37.013-.046.054-.159.19-.353.18-.244.375-.475.583-.697.095-.104.181-.199.263-.294.832-.963 1.904-2.175 2.849-3.247l.022-.027C7.6 9.927 8.156 9.289 8.328 9.068c.163-.04.57-.086 1.583-.082M26.563 7.856c-1.7 0-2.184.104-2.465.52-.135.18-1.167 1.352-2.162 2.478-.954 1.081-2.04 2.307-2.88 3.284-.516.597-1.579 1.56-1.258 2.428.466 1.267 2.641 2.691 3.745 3.329l.425.244.416-.258c.81-.515 1.574-1.108 2.275-1.768.005.452.01.981.014 1.588.031 2.858.072 6.77-.073 7.729l-.004.04c-.082.557-.159 1.081-.394 1.348-.172.2-.466.362-.76.516-.293.036-1.275.135-2.157.221l-.728.073-.045 5.128.805.014c.054 0 5.373.104 9.131.104 3.428 0 3.727-.082 3.908-.131l.624-.172-.027-.647c-.032-.791-.09-3.003.009-3.708l.14-.995-1.004.072c-.109.009-.217.014-.33.014-1.34 0-1.52-.52-1.945-2.325l-.054-.23c-.367-1.534-.326-8.987-.299-13.437.014-2.103.023-3.763-.004-4.532-.005-.122-.068-.737-.869-.787l-.294-.018c-.248-.014-.601-.032-1.008-.05-.742-.036-1.814-.072-2.732-.072m0 1.13c.905 0 1.954.037 2.677.068l.995.05.104.01c.014.84.01 2.346-.004 4.196-.036 6.345-.036 12.166.33 13.704l.054.23c.403 1.714.756 3.193 3.044 3.198h.036c-.059.936-.013 2.582.01 3.247-.372.027-1.258.059-3.366.059-3.202 0-7.593-.077-8.796-.095l.023-2.999c.76-.077 1.61-.163 1.904-.199l.199-.022.176-.09c.366-.19.787-.421 1.099-.779.452-.52.556-1.234.66-1.926l.005-.041c.145-.968.122-4.152.081-7.906-.009-.691-.013-1.184-.013-1.582l-.023-2.615-1.886 1.796c-.601.56-1.248 1.072-1.936 1.524-.628-.37-1.23-.778-1.8-1.23-.904-.728-1.18-1.176-1.261-1.37.013-.046.054-.159.19-.353.18-.244.375-.475.588-.697.095-.104.18-.199.262-.294.832-.963 1.908-2.18 2.854-3.251l.013-.018c1.475-1.67 2.03-2.307 2.203-2.529.158-.04.565-.086 1.578-.086" mask="url(#prefix__d)"/>
        </g>
    </g>
</svg>
