<svg role="img" id="age-icon-2" aria-hidden="true" focusable="false" xmlns="http://www.w3.org/2000/svg" width="80" height="80" viewBox="0 0 80 80">
    <g fill="none" fill-rule="evenodd">
        <circle cx="40" cy="40" r="40" fill="#FFF" fill-rule="nonzero"/>
        <circle cx="40" cy="40" r="38" fill="#E5F6F6" fill-rule="nonzero"/>
        <g>
            <path fill="#000" d="M10.29 6.81L11.331 6.81 11.331 5.77 10.29 5.77z" transform="translate(29 22)"/>
            <path fill="#FFDC2D" d="M10.79.044s-.371 2.197-1.5 3.707c-.125.115-.23.243-.32.385-.159.257-.243.558-.243.859 0 .766.54 1.421 1.306 1.691v-1.15h1.528V6.69c.766-.266 1.306-.921 1.306-1.687.138-1.541-2.077-4.96-2.077-4.96" transform="translate(29 22)"/>
            <path fill="#FFF" d="M9.635 13.838c.015 0 .031.001.048.005.432.137.54 1.134.452 1.809-.076.576-.501 1.286-.993 1.974.047-.55.016-1.127-.013-1.695l-.095-1.845h-.013c.251-.164.477-.248.614-.248m11.929 13.43l-.032-1.74-2.869-.062c-.276-.012-.55-.018-.814-.018-.382 0-1.177 0-1.937.212-1.618.453-1.95 1.536-2.004 2.143-.03.343-.05.623-.061.85-.37.005-.873.009-1.413.01 1.5-2.152 3.782-5.52 4.132-6.108 1.256-2.11 2.114-4.4 2.416-6.45.392-2.668-.16-4.894-1.599-6.44-1.772-1.92-4.266-2.978-7.024-2.979h-.021c-2.449 0-4.848.852-6.76 2.4C1.418 10.85.202 13.533.063 16.846c-.005.128-.015.265-.026.41-.036.483-.076 1.031.048 1.566.177.76.651 1.32 1.37 1.62.473.198 1.06.295 1.791.295.604 0 1.227-.064 1.776-.12.324-.033.629-.064.876-.077.452-.022.854-.086 1.209-.194-.511.628-1.23 1.344-1.982 2.093l-.051.05c-1.562 1.553-2.202 3.09-2.821 4.577l-.12.29c-.15.358-.305.73-.277 6.697l.01 1.813 1.833.01.183.003c3.762.07 7.337.108 10.067.108 2.747 0 4.412-.012 4.948-.036l2.466-.065.128-1.633c.164-2.137.076-6.856.074-6.985" transform="translate(29 22)"/>
            <path fill="#00ABA7" d="M10.357 7.75c-2.223-.005-4.38.76-6.107 2.16-2.138 1.745-3.015 4.33-3.126 6.979-.04.983-.314 2.134.74 2.572.38.16.867.213 1.381.213.899 0 1.89-.16 2.6-.195 2.329-.115 2.329-1.466 2.222-3.494l-.04-.78-.797.045c-.035 0-.066.005-.097.005-.07 0-.142-.005-.208-.023-.005-.141.088-.535.487-1.067.615-.819 1.532-1.39 2.223-1.39.106 0 .212.013.319.04 1.235.34 1.359 2.028 1.235 2.975-.15 1.143-1.111 2.392-1.966 3.494-.323.42-.633.815-.899 1.209-.562.824-1.505 1.758-2.502 2.75-1.505 1.496-2.059 2.967-2.71 4.52-.066.16-.221.537-.195 6.284l.005.762.784.004c.066 0 5.517.111 10.242.111 2.825 0 4.432-.013 4.91-.035l1.52-.04.052-.678c.16-2.072.076-6.686.071-6.88l-.013-.723-1.86-.04c-.2-.008-.474-.017-.78-.017-.681 0-2.758 0-2.882 1.386-.173 1.944.062 1.762-.452 1.806-.084.01-1.23.022-2.355.022-.682 0-1.355-.004-1.776-.022.717-.912 4.822-6.938 5.27-7.691 2.116-3.556 3.64-8.737.952-11.624-1.572-1.705-3.795-2.639-6.248-2.639m.004 1.107c2.139 0 4.074.81 5.438 2.28.5.536.84 1.214 1.01 2.01.163.771.172 1.657.03 2.636-.261 1.775-1.023 3.786-2.134 5.659-.456.77-4.526 6.735-5.19 7.572l-1.337 1.7 2.16.093c.39.018 1.002.026 1.825.026.842 0 2.272-.013 2.453-.026.027-.005.053-.005.08-.005.133-.004.261-.026.39-.057.327-.097.602-.328.752-.633.138-.28.147-.532.16-.908.009-.252.022-.633.075-1.204-.004-.027.009-.054.031-.067.036-.03.142-.106.394-.177.474-.133 1.067-.133 1.35-.133.284 0 .545.009.736.018h.018l.797.018c.026 1.63.04 4.516-.054 6.12l-.518.012h-.022c-.456.023-2.09.036-4.857.036-3.64 0-7.718-.067-9.924-.106-.017-4.397.08-5.35.12-5.549l.11-.261c.585-1.408 1.094-2.626 2.352-3.879 1.036-1.027 2.01-1.997 2.63-2.91.248-.362.54-.743.855-1.146l.004-.005c.939-1.213 2.002-2.585 2.188-4.029.044-.35.12-1.258-.142-2.165-.305-1.05-.979-1.767-1.9-2.02-.199-.053-.403-.08-.61-.08-1.05 0-2.268.718-3.105 1.83-.47.624-.73 1.27-.713 1.78l.031.814.789.213c.11.03.225.049.336.053.031.695.04 1.492-.186 1.745-.133.146-.5.248-1 .27-.306.013-.643.049-.997.084-.518.053-1.058.11-1.545.11-.536 0-.815-.07-.952-.128-.022-.009-.045-.022-.067-.035 0 0-.035-.058-.048-.235-.018-.212.004-.478.026-.761.013-.155.022-.315.031-.474.053-1.276.297-2.436.717-3.445.46-1.094 1.134-2.01 2.002-2.724C6.482 9.53 8.39 8.852 10.36 8.856" transform="translate(29 22)"/>
        </g>
    </g>
</svg>
