<svg role="img" id="age-icon-5" aria-hidden="true" focusable="false" xmlns="http://www.w3.org/2000/svg" width="80" height="80" viewBox="0 0 80 80">
    <g fill="none" fill-rule="evenodd">
        <circle cx="40" cy="40" r="40" fill="#FFF" fill-rule="nonzero"/>
        <circle cx="40" cy="40" r="38" fill="#E5F6F6" fill-rule="nonzero"/>
        <g>
            <path fill="#000" d="M9.667 6.8L10.713 6.8 10.713 5.754 9.667 5.754z" transform="translate(30 22)"/>
            <path fill="#FFDC2D" d="M10.174 0s-.373 2.203-1.508 3.72c-.125.116-.231.245-.32.387-.16.258-.245.561-.25.864 0 .77.543 1.428 1.313 1.695V5.509h1.535v1.157c.77-.267 1.313-.926 1.313-1.695C12.395 3.43 10.174 0 10.174 0" transform="translate(30 22)"/>
            <path fill="#FFF" d="M10.089 16.417c-.686.018-1.583.06-2.503.107-.02-.613-.043-1.364-.06-2.063.895.117 1.307.273 1.497.397.12.08.147.123.256.554.02.076.04.154.062.232.047.17.217.597.748.773m10.044 7.764c-.51-2.5-1.97-4.704-4.005-6.047-.955-.64-2.01-1.118-3.133-1.423l-.005-.001c-.46-.123-.929-.21-1.397-.259 1.066-.098 2.514-.32 2.861-.463.735-.304.876-1.146.973-2.134.064-.647.107-1.52.129-2.597.036-1.807 0-3.552-.002-3.626l-.022-1.039-1.778-.01L0 7.073l.029 1.059c.002.064.178 6.507.173 8.792v.023c-.004 1.632-.009 3.174.04 4.935l.043 1.543 1.606.234h.032c.03.003.064.005.104.005.17 0 .396-.025.736-.061.614-.066 1.54-.166 2.579-.166 2.022 0 3.537.379 4.504 1.125.145.112.487.76.438 1.626-.029.505-.204 1.191-.875 1.599-.076.046-.154.096-.236.15-.147.096-.517.338-.703.376-.068-.086-.243-.378-.363-1.18-.082-.551-.167-1.044-.377-1.48-.334-.697-.931-1.1-1.68-1.134H6.04c-.264-.01-.503-.019-.748-.019-1.046 0-3.374.187-3.472.195l-.963.078-.02.965c0 .021-.042 2.125-.06 4.227-.01 1.238-.011 2.235-.001 2.962.019 1.409.038 1.795.386 2.152.164.17.393.402 2.024.66.748.119 1.953.26 3.44.26 2.39 0 4.577-.359 6.498-1.066 2.56-.942 4.56-2.48 5.945-4.57 1.147-1.73 1.524-3.925 1.063-6.183" transform="translate(30 22)"/>
            <path fill="#00ABA7" d="M13.77 7.65l-12.673.453s.178 6.497.173 8.825c-.004 1.633-.009 3.172.04 4.926l.018.645.64.093c.019 0 .04.005.059.005.356 0 1.704-.227 3.315-.227 1.726 0 3.751.262 5.157 1.348.961.743 1.504 3.747-.538 4.984-.334.2-.948.685-1.535.685-.579 0-1.13-.462-1.375-2.096-.134-.898-.272-1.668-1.05-1.704-.232-.009-.472-.018-.708-.018-1.015 0-3.387.192-3.387.192s-.169 8.379.023 8.575c.133.138 2.1.596 4.699.596 3.729 0 8.762-.948 11.552-5.157 2.212-3.338.854-8.446-2.643-10.752-.864-.578-1.82-1.01-2.822-1.281-.551-.147-1.117-.236-1.682-.263-.084-.004-.196-.004-.32-.004-.961 0-3.022.111-4.156.173-.04-1.103-.107-3.11-.12-4.334.048-.004.102-.013.155-.013h.022c3.538.245 3.476 1.041 3.756 2.06.014.054.16.071.383.071.899 0 3.066-.338 3.293-.431.592-.245.44-7.347.44-7.347l-.716-.005zm-.387 1.125c.004.552.004 1.26-.005 1.994-.026 1.887-.11 2.826-.173 3.27-.539.09-1.38.205-1.99.254-.182-.52-.538-.965-1-1.264-.717-.471-1.772-.72-3.53-.845-.03 0-.066-.005-.097-.005-.08 0-.165.005-.245.018h-.009l-1.028.08.014 1.042c.013 1.246.084 3.266.124 4.36l.04 1.135 1.135-.062c1.13-.067 3.164-.174 4.094-.174.138 0 .222 0 .267.005.49.027.979.102 1.45.227.886.24 1.727.623 2.493 1.135.796.534 1.472 1.223 1.989 2.029.52.805.89 1.7 1.081 2.639.343 1.682.08 3.297-.748 4.539-1.121 1.695-2.763 2.95-4.881 3.729-1.656.61-3.64.93-5.745.93-1.638 0-2.95-.187-3.658-.334-.036-1.22-.013-3.978.031-6.693.752-.053 1.745-.111 2.292-.111.174 0 .343.004.512.009.062.2.12.57.147.765.142.957.396 1.664.774 2.167.427.565 1.032.877 1.7.877.819 0 1.526-.463 1.949-.743.062-.04.12-.08.16-.103.61-.364 1.108-.894 1.437-1.526.29-.56.454-1.18.485-1.811.04-.663-.053-1.326-.267-1.949-.16-.463-.467-1.104-1.014-1.526-1.357-1.05-3.324-1.58-5.839-1.58-1.157 0-2.193.111-2.812.178l-.116.013c-.04-1.584-.035-3.012-.03-4.516.004-1.758-.094-5.79-.143-7.752l5.233-.192 4.356-.155 1.438-.054h.129z" transform="translate(30 22)"/>
        </g>
    </g>
</svg>
