<svg role="img" id="age-icon-8" aria-hidden="true" focusable="false" xmlns="http://www.w3.org/2000/svg" xmlns:xlink="http://www.w3.org/1999/xlink" width="80" height="80" viewBox="0 0 80 80">
    <defs>
        <path id="prefix__a" d="M0 0.031L18.113 0.031 18.113 29.278 0 29.278z"/>
    </defs>
    <g fill="none" fill-rule="evenodd">
        <circle cx="40" cy="40" r="40" fill="#FFF" fill-rule="nonzero"/>
        <circle cx="40" cy="40" r="38" fill="#E5F6F6" fill-rule="nonzero"/>
        <g>
            <path fill="#000" d="M8.036 6.921L9.093 6.921 9.093 5.864 8.036 5.864z" transform="translate(31 22)"/>
            <g>
                <path fill="#FFDC2D" d="M8.544.04s-.38 2.229-1.526 3.763c-.123.115-.234.248-.327.394-.163.261-.248.566-.248.876 0 .778.549 1.446 1.327 1.716V5.617h1.553v1.172c.778-.27 1.326-.938 1.326-1.716C10.791 3.512 8.544.04 8.544.04" transform="translate(31 22) translate(0 .004)"/>
                <g transform="translate(31 22) translate(0 .004) translate(0 6.678)">
                    <mask id="prefix__b" fill="#fff">
                        <use xlink:href="#prefix__a"/>
                    </mask>
                    <path fill="#FFF" d="M9.041 9.244c-.197-.152-.454-.48-.5-.664-.13-.94.091-1.664.251-1.731.14.113.374.481.424.889.066.531-.037 1.216-.175 1.506m-.59 9.92c.304-.53.626-.845.766-.926.098.061.351.296.608.879.255.58.345 1.132.326 1.32-.067.64-.213.91-.324 1.024-.046.048-.186.192-.73.192h-.019c-.265-.003-.954-.737-1.016-1.4-.012-.137.083-.553.39-1.089m6.322-6.358c.186-.254.377-.534.576-.844 1.478-2.298 1.655-5 .487-7.414C14.635 2.068 12.166.363 9.389.094 9.017.052 8.665.031 8.314.031c-1.469 0-2.673.338-3.788 1.064C2.759 2.241 1.518 4.04 1.03 6.163c-.486 2.13-.144 4.3.964 6.109.332.545.737.97 1.133 1.324C1.523 15.08-.628 17.754.173 22.66c.263 1.598 1.324 3.244 2.91 4.516 1.671 1.34 3.696 2.087 5.701 2.1h.092c2.516 0 4.594-.685 6.176-2.039 1.584-1.354 2.58-3.297 2.958-5.774.596-3.903-1.507-6.909-3.236-8.658" mask="url(#prefix__b)"/>
                </g>
                <path fill="#00ABA7" d="M9.097 29.393h-.022c-.982-.005-1.973-1.327-2.07-2.366-.084-.93.911-2.619 1.72-3.052.129-.07.275-.115.42-.128.023 0 .05-.005.071-.005 1.225 0 2.088 2.428 1.99 3.384-.159 1.52-.787 2.167-2.109 2.167zm0-12.344c-.69 0-1.521-1.035-1.605-1.636-.124-.876-.076-2.464.893-2.866.097-.044.203-.07.31-.088.044-.005.084-.01.128-.01.72 0 1.34.97 1.446 1.836.097.783-.027 2.724-1.15 2.764h-.022zm-.783-9.278c-1.251 0-2.273.283-3.21.893-1.535.995-2.614 2.565-3.039 4.414-.424 1.857-.128 3.746.836 5.32.42.69.99 1.15 1.543 1.592.111.089.222.177.323.266l-.159.132C3.127 21.64.371 23.966 1.22 29.168c.443 2.684 3.773 5.7 7.572 5.726h.084c4.533 0 7.403-2.454 8.084-6.912.602-3.936-1.915-6.89-3.63-8.403.305-.332.676-.81 1.127-1.513 1.274-1.981 1.429-4.303.425-6.377-1.044-2.154-3.193-3.631-5.604-3.861-.345-.04-.663-.057-.964-.057zm.783 22.736c.969 0 1.734-.287 2.282-.849.518-.53.818-1.287.929-2.309.102-.981-.398-2.715-1.314-3.728-.65-.725-1.326-.876-1.773-.876-.053 0-.106 0-.16.005-.3.022-.592.11-.857.252-.81.433-1.411 1.38-1.632 1.765-.283.495-.752 1.463-.668 2.366.066.734.416 1.525.955 2.176.637.765 1.42 1.19 2.212 1.194h.026v.004zm0-12.348h.066c.57-.022 1.08-.27 1.46-.716.995-1.163.756-3.202.743-3.286-.084-.637-.323-1.243-.699-1.765-.495-.672-1.15-1.04-1.844-1.04-.093 0-.186.005-.274.019h-.005c-.199.026-.398.084-.584.163-.54.226-1.238.765-1.512 2.048-.181.849-.097 1.676-.049 1.994.146 1.04 1.345 2.583 2.698 2.583zm-.783-9.278c.27 0 .553.013.871.044 2.03.194 3.84 1.437 4.715 3.246.411.827.593 1.747.535 2.667-.062.92-.363 1.804-.893 2.627-.376.584-.717 1.04-1.009 1.358l-.778.831.85.752c1.304 1.15 2.047 2.26 2.44 2.99.779 1.433 1.053 2.918.827 4.418-.296 1.95-1.043 3.45-2.224 4.453-1.18 1.004-2.782 1.517-4.768 1.522H8.8c-1.516-.01-3.064-.588-4.36-1.623-1.159-.93-1.955-2.114-2.127-3.176-.182-1.092-.195-2.11-.04-3.025.12-.743.371-1.464.734-2.127.668-1.208 1.619-2.012 2.313-2.596l.018-.018c.048-.04.097-.08.141-.12l1-.853-1.008-.84c-.102-.084-.208-.168-.306-.252l-.03-.027c-.5-.402-.974-.783-1.296-1.309-.814-1.327-1.062-2.923-.704-4.498.359-1.574 1.265-2.892 2.561-3.732.77-.491 1.575-.712 2.618-.712z" transform="translate(31 22) translate(0 .004)"/>
            </g>
        </g>
    </g>
</svg>
