<svg role="img" id="age-icon" aria-hidden="true" focusable="false" xmlns="http://www.w3.org/2000/svg" width="80" height="80" viewBox="0 0 80 80">
    <g fill="none" fill-rule="evenodd">
        <circle cx="40" cy="40" r="40" fill="#FFF" fill-rule="nonzero"/>
        <circle cx="40" cy="40" r="38" fill="#E5F6F6" fill-rule="nonzero"/>
        <g>
            <path fill="#FFF" d="M13.49 36c-2.13 0-5.249-.035-8.784-.099l-.17-.003h-.011l-1.813-.03.054-7.177 1.642-.163c.689-.071 1.492-.156 1.902-.202.096-.054.203-.118.259-.165.06-.148.118-.544.157-.812l.008-.068c.118-.821.09-4.566.064-6.989-.213.156-.43.306-.651.452l-.009.005-.932.601-.955-.56c-.458-.27-1.353-.828-2.203-1.528C1.023 18.418.394 17.64.124 16.887c-.486-1.357.575-2.548 1.209-3.26.08-.09.154-.175.215-.246.88-1.05 2.035-2.393 2.827-3.31l.375-.436c.687-.799 1.54-1.79 1.683-1.976.625-.915 1.648-.961 3.257-.961 1.005 0 2.137.048 2.722.076.316.014.641.03.99.05h.007l.296.018c1.209.082 1.79 1 1.818 1.817.026.78.019 2.33.005 4.605l-.001.248c-.018 3.772-.057 11.623.266 13.013l.054.238c.097.424.3 1.312.445 1.46.017.009.12.051.45.051.08 0 .16-.003.24-.01h.01l2.264-.163-.318 2.304c-.068.485-.05 2.183 0 3.537l.06 1.488-1.41.4c-.289.08-.614.17-4.098.17z" transform="translate(30 20)"/>
            <path fill="#00ABA7" d="M4.787 33.895c.372.007 5.277.098 8.888.098 1.769 0 2.914-.02 3.404-.061-.023-.705-.068-2.383-.005-3.327h-.043c-.714-.004-1.613-.117-2.235-.958-.4-.54-.581-1.229-.831-2.298l-.054-.234c-.335-1.421-.374-6.205-.33-13.988.014-1.905.022-3.433.005-4.293l-.109-.008-1-.05c-1.123-.048-2.008-.071-2.706-.071-1.038 0-1.44.049-1.593.091-.172.228-.752.895-2.227 2.582l-.027.028c-1.004 1.147-2.053 2.348-2.875 3.31l-.267.298c-.181.199-.43.472-.599.722-.143.212-.178.318-.186.354.073.172.341.642 1.277 1.401.593.472 1.206.896 1.823 1.26.7-.467 1.36-.991 1.962-1.56l1.897-1.826.023 2.648c0 .392.004.877.013 1.62.039 3.677.061 7.062-.084 8.07l-.005.04c-.103.706-.21 1.436-.664 1.964-.31.359-.733.602-1.106.792l-.181.093-.196.022c-.375.05-1.547.167-1.93.205l-.04 3.076zm8.906 1.268c-2.19 0-5.398-.036-9.035-.1l-.188-.004-.832-.014.04-5.283.754-.074c.826-.084 1.857-.19 2.177-.23.292-.153.59-.32.76-.518.228-.27.305-.793.387-1.345l.008-.07c.145-.991.1-5.139.071-7.883-.004-.598-.008-1.117-.013-1.569-.69.65-1.452 1.246-2.263 1.772l-.43.273-.438-.255c-.446-.258-1.316-.79-2.137-1.457-.891-.723-1.448-1.38-1.656-1.951-.282-.774.48-1.616 1.036-2.231.087-.096.17-.187.24-.27.906-1.064 2.093-2.423 2.907-3.352l.387-.443c.865-.99 1.682-1.924 1.797-2.084.293-.434.785-.54 2.51-.54 1.016 0 2.163.048 2.757.076.327.015.659.031 1.015.05l.298.018c.829.055.893.699.898.827.026.769.018 2.404.004 4.63v.253c-.023 4.46-.06 11.925.302 13.46l.054.233c.424 1.827.606 2.354 1.941 2.354.11 0 .222-.005.332-.014l1.043-.074-.147 1.045c-.096.671-.047 2.765-.008 3.78l.027.674-.645.18c-.188.051-.5.136-3.953.136z" transform="translate(30 20)"/>
            <path fill="#000" d="M10.047 6.698L10.884 6.698 10.884 5.86 10.047 5.86z" transform="translate(30 20)"/>
            <path fill="#FFDC2D" d="M10.46 0s-.376 2.213-1.516 3.735c-.125.116-.232.245-.322.388-.16.259-.245.562-.25.866 0 .772.545 1.432 1.319 1.704v-1.16h1.542v1.165c.774-.268 1.319-.928 1.319-1.7C12.69 3.445 10.46 0 10.46 0" transform="translate(30 20)"/>
        </g>
    </g>
</svg>
