<svg role="img" id="age-icon-7" aria-hidden="true" focusable="false" xmlns="http://www.w3.org/2000/svg" xmlns:xlink="http://www.w3.org/1999/xlink" width="80" height="80" viewBox="0 0 80 80">
    <defs>
        <path id="prefix__a" d="M0 0.039L22.109 0.039 22.109 29.35 0 29.35z"/>
    </defs>
    <g fill="none" fill-rule="evenodd">
        <circle cx="40" cy="40" r="40" fill="#FFF" fill-rule="nonzero"/>
        <circle cx="40" cy="40" r="38" fill="#E5F6F6" fill-rule="nonzero"/>
        <g>
            <path fill="#000" d="M10.562 6.894L11.622 6.894 11.622 5.834 10.562 5.834z" transform="translate(29 22)"/>
            <path fill="#FFDC2D" d="M11.077 0s-.382 2.234-1.53 3.773c-.124.115-.235.248-.328.394-.164.262-.248.568-.253.878 0 .78.55 1.45 1.33 1.72V5.592h1.556v1.175c.78-.27 1.33-.94 1.33-1.72C13.33 3.48 11.078 0 11.078 0" transform="translate(29 22)"/>
            <g transform="translate(29 22) translate(0 6.65)">
                <mask id="prefix__b" fill="#fff">
                    <use xlink:href="#prefix__a"/>
                </mask>
                <path fill="#FFF" d="M21.087 2.181l.001-2.128L.058.04l-.03 1.035c-.006.26-.17 6.37.37 8.69.043.182.22.68.871.844.113.028.242.048.406.062.217.019.503.028.876.028 1.143 0 2.821-.098 3.13-.145l.702-.106.171-.69.077-.318c.389-1.629.641-2.026 1.285-2.026.706 0 .902.237.967.316.592.718.186 2.819-.057 4.074-.082.422-.16.82-.208 1.17l-.824 5.681-.004.029c-.127 1.08-1.133 9.382-1.144 9.466l-.145 1.2 7.833-.057.987-.008.067-.984c.002-.03.214-3.007 1.44-9.267l1.126-5.646c.048-.238.096-.554.155-.954.15-.99.374-2.488.769-3.678.381-1.147.785-1.564.964-1.564.035 0 .138.01.32.11l1.457.793.113-1.655c.005-.062.014-.206.026-.409.22-3.466.312-4.438.35-4.642-.062.33-.42.793-1.02.793" mask="url(#prefix__b)"/>
            </g>
            <path fill="#00ABA7" d="M1.092 7.754s-.173 6.207.342 8.42c.017.084.496.11 1.117.11 1.13 0 2.735-.097 2.97-.133C5.854 14.808 6.142 13 7.916 13c3.595 0 2.052 4.646 1.755 6.774l-.824 5.684c-.129 1.095-1.144 9.47-1.144 9.47l6.623-.049s.2-2.975 1.459-9.403l1.126-5.648c.28-1.384.732-7.05 2.93-7.05.253 0 .528.076.83.24.03-.452.319-5.25.416-5.25L1.092 7.754zM2.18 8.863l17.676.017c-.018.2-.036.426-.053.674-.053.71-.107 1.485-.147 2.128-.527.045-1.228.284-1.853 1.086-.381.484-.7 1.127-.975 1.96-.452 1.366-.696 2.975-.856 4.043-.053.355-.097.661-.137.847v.005l-1.126 5.648v.004c-.852 4.363-1.224 7.143-1.38 8.517l-4.366.031c.288-2.367.887-7.337.989-8.21l.82-5.676v-.008c.04-.297.115-.67.19-1.064.169-.878.364-1.876.4-2.856.048-1.316-.213-2.305-.799-3.01-.603-.732-1.494-1.104-2.646-1.104-1.118 0-2.018.505-2.603 1.463-.337.545-.528 1.166-.678 1.751-.585.036-1.41.067-2.084.067h-.164c-.208-1.672-.23-4.505-.208-6.313z" transform="translate(29 22)"/>
        </g>
    </g>
</svg>
