<svg role="img" id="age-icon-9" aria-hidden="true" focusable="false" xmlns="http://www.w3.org/2000/svg" xmlns:xlink="http://www.w3.org/1999/xlink" width="80" height="80" viewBox="0 0 80 80">
    <defs>
        <path id="prefix__a" d="M0 0.035L19.703 0.035 19.703 29.278 0 29.278z"/>
    </defs>
    <g fill="none" fill-rule="evenodd">
        <circle cx="40" cy="40" r="40" fill="#FFF" fill-rule="nonzero"/>
        <circle cx="40" cy="40" r="38" fill="#E5F6F6" fill-rule="nonzero"/>
        <g>
            <path fill="#000" d="M8.968 6.921L10.025 6.921 10.025 5.864 8.968 5.864z" transform="translate(30 22)"/>
            <g>
                <path fill="#FFDC2D" d="M9.481.04s-.38 2.229-1.525 3.763c-.124.115-.235.248-.328.394-.163.261-.247.566-.252.876 0 .778.549 1.446 1.327 1.716V5.617h1.552v1.172c.779-.27 1.327-.938 1.327-1.716.146-1.561-2.1-5.033-2.1-5.033" transform="translate(30 22) translate(0 .004)"/>
                <g transform="translate(30 22) translate(0 .004) translate(0 6.678)">
                    <mask id="prefix__b" fill="#fff">
                        <use xlink:href="#prefix__a"/>
                    </mask>
                    <path fill="#FFF" d="M9.463 19.285v-.012c.003-.19.092-.981.173-1.605l.026-.2c.108-.014.216-.031.324-.05-.063 1.022-.238 1.86-.554 2.656.014-.328.029-.685.031-.789M8.88 8.89c.171-.617.505-1.092.894-1.273l.016-.007c.14.292.34.966.407 2.221-.459.533-.939.883-1.215 1.014-.017-.033-.036-.073-.056-.12-.207-.492-.224-1.195-.046-1.835m10.12-1.373c-.558-1.795-1.497-3.326-2.716-4.426C13.347.437 10.478.035 9.011.035h-.027c-.304 0-.598.018-.873.052-1.997.22-3.717 1.106-4.976 2.56-1.246 1.438-1.973 3.367-2.103 5.578-.165 2.77.56 5.03 2.153 6.722.495.526 1.032.95 1.573 1.29L.66 15.99l-.223.84c-.024.09-.58 2.23-.402 4.682.252 3.451 1.822 5.83 4.54 6.88 1.545.596 2.931.886 4.239.886 3.287 0 6.349-1.498 8.188-4.008 1.766-2.408 2.208-5.568 2.483-8.341.403-4.053.249-7.044-.485-9.412" mask="url(#prefix__b)"/>
                </g>
                <path fill="#00ABA7" d="M8.822 18.641c-.145 0-.526 0-.875-.827-.61-1.45-.093-3.803 1.384-4.484.243-.11.456-.168.637-.168.747 0 1.238 1.41 1.305 3.701-.681.907-1.734 1.778-2.45 1.778m.163-10.866c-.252 0-.504.013-.752.044-3.507.385-5.904 3.1-6.143 7.147-.411 6.908 5.41 8.182 6.62 8.182.775 0 1.553-.15 2.358-.451.044 2.06-.181 3.688-1.088 5.387-.26.486-1.004.8-1.897.8-.88 0-1.544-.31-1.743-.61-.04-.062-.137-.208.01-.54.079-.181.69-.504 1.15-.504.017 0 .035 0 .052.004l.792.084s.053-1.19.057-1.38c.005-.37.182-1.729.182-1.729l-7.12-.429s-2.15 8.12 3.493 10.3c1.216.47 2.525.814 3.857.814 2.95 0 5.692-1.335 7.332-3.573 1.606-2.19 2.021-5.188 2.282-7.82.39-3.909.248-6.766-.442-8.99-.433-1.394-1.185-2.844-2.415-3.954-2.715-2.455-5.333-2.786-6.585-2.782m-.164 11.968c.584 0 1.226-.261 1.907-.774.54-.412 1.017-.898 1.424-1.438l.234-.31-.009-.389c-.035-1.256-.19-2.277-.46-3.042-.53-1.504-1.45-1.73-1.95-1.73-.345 0-.703.089-1.097.27-.526.243-.982.624-1.358 1.137-.331.46-.575.977-.72 1.521-.314 1.124-.261 2.309.137 3.255.287.686.849 1.504 1.892 1.5M8.986 8.88c1.15 0 3.436.322 5.842 2.49 1.181 1.06 1.792 2.467 2.101 3.458.646 2.079.77 4.794.398 8.553-.248 2.49-.632 5.312-2.074 7.275-1.433 1.955-3.839 3.123-6.44 3.123-1.043 0-2.17-.243-3.458-.739-1.044-.402-1.813-1.061-2.344-2.012-.446-.796-.716-1.791-.81-2.954-.096-1.225.032-2.384.156-3.14l4.993.3c-.027.275-.049.527-.053.677 0 .035-.005.115-.01.221-.34.04-.671.133-.981.279-.49.23-.823.526-.973.875-.252.575-.225 1.128.08 1.593.234.358.628.65 1.145.849.487.181 1.004.27 1.521.265.553.005 1.102-.097 1.615-.305.575-.243 1.008-.615 1.256-1.08.92-1.72 1.273-3.436 1.22-5.934l-.035-1.561-1.46.548c-.685.256-1.326.38-1.967.38-.43 0-2.473-.34-3.945-1.901-1.168-1.239-1.699-2.96-1.57-5.109.101-1.729.65-3.21 1.578-4.29.898-1.034 2.137-1.667 3.583-1.826l.04-.004c.194-.027.393-.036.592-.031" transform="translate(30 22) translate(0 .004)"/>
            </g>
        </g>
    </g>
</svg>
