<svg role="img" id="age-icon-10" aria-hidden="true" focusable="false" xmlns="http://www.w3.org/2000/svg" xmlns:xlink="http://www.w3.org/1999/xlink" width="80" height="80" viewBox="0 0 80 80">
    <defs>
        <path id="prefix__a" d="M0 0.031L39.082 0.031 39.082 29.358 0 29.358z"/>
        <path id="prefix__c" d="M0 35.956L39.082 35.956 39.082 0 0 0z"/>
    </defs>
    <g fill="none" fill-rule="evenodd">
        <circle cx="40" cy="40" r="40" fill="#FFF" fill-rule="nonzero"/>
        <circle cx="40" cy="40" r="38" fill="#E5F6F6" fill-rule="nonzero"/>
        <g transform="translate(20 22)">
            <g transform="translate(0 6.598)">
                <mask id="prefix__b" fill="#fff">
                    <use xlink:href="#prefix__a"/>
                </mask>
                <path fill="#FFF" d="M28.692 9.048l.02-.003c.083-.01.172-.016.258-.016.377 0 .864.113 1.282.992.303.638.496 1.57.53 2.561.082 2.322.019 4.362-.193 6.237v.003c-.03.24-.06.489-.094.734-.085.587-.197.882-.4 1.052l-.006.004c-.257.218-.587.3-.87.324h-.21c-.054 0-.12-.004-.188-.007-.59-.04-1.142-.259-1.598-.633-.52-.44-.65-1.659-.746-2.55-.02-.19-.04-.37-.062-.545-.178-1.388-.379-3.436-.067-5.193.203-1.147.667-2.7 2.344-2.96m10.111.137c-.03-.29-.069-.576-.115-.85-.23-1.364-.706-3.372-2.195-5.061-.941-1.069-2.118-1.869-3.498-2.379-1.2-.444-2.56-.669-4.039-.67h-.004c-.571.001-1.15.035-1.771.104-.151.015-.297.034-.437.052h-.007c-1.438.196-2.674.77-3.782 1.756-1.042.928-1.829 2.1-2.46 3.122-1.837 2.963-2.807 6.927-2.732 11.16.026 1.51.302 3.04.796 4.492l-1.555.112h-.011c-.076.007-.158.01-.236.01-.3 0-.408-.035-.433-.045-.141-.158-.333-.972-.436-1.412l-.054-.229c-.323-1.349-.284-8.986-.265-12.656l.002-.246c.014-2.215.021-3.723-.006-4.483-.03-.81-.619-1.715-1.842-1.792l-.288-.017h-.007c-.22-.013-.57-.031-.997-.05C12.079.086 10.86.03 9.708.03c-1.614 0-2.642.046-3.271.944-.136.17-.827.96-2.056 2.351l-.339.384c-.865.98-1.76 1.993-2.489 2.84l-.22.245C.697 7.489-.365 8.651.123 9.989c.58 1.574 2.838 3.064 4.135 3.814l.97.556.943-.59.006-.005c.208-.132.413-.27.614-.41.026 2.357.054 5.953-.066 6.746l-.007.063c-.038.259-.094.63-.152.773-.045.036-.128.088-.248.153-.372.041-1.105.116-1.897.193l-1.664.165-.05 7.03 1.84.03h.012l.175.004c3.532.064 6.648.099 8.772.099 3.502 0 3.81-.085 4.108-.167l1.426-.393-.062-1.475c-.043-1.083-.073-2.925 0-3.44l.12-.855c.434.961.967 1.87 1.586 2.694 2.121 2.827 5.06 4.384 8.276 4.384h.005c.954-.005 1.9-.133 2.813-.382 2.599-.69 4.802-2.419 5.893-4.625 1.158-2.345 1.354-4.974 1.394-7.236.054-3.18-.027-5.626-.263-7.93" mask="url(#prefix__b)"/>
            </g>
            <mask id="prefix__d" fill="#fff">
                <use xlink:href="#prefix__c"/>
            </mask>
            <path fill="#000" d="M18.493 6.886L19.551 6.886 19.551 5.827 18.493 5.827z" mask="url(#prefix__d)"/>
            <path fill="#FFDC2D" d="M19.002 0s-.38 2.232-1.527 3.768c-.124.115-.235.248-.328.394-.164.262-.248.567-.252.877 0 .78.549 1.448 1.328 1.718V5.584h1.554v1.173c.78-.27 1.329-.939 1.329-1.718C21.256 3.476 19.002 0 19.002 0" mask="url(#prefix__d)"/>
            <path fill="#00ABA7" d="M9.708 7.691c-1.665 0-2.139.102-2.413.51-.133.177-1.143 1.324-2.117 2.426-.934 1.059-1.997 2.259-2.82 3.215-.506.585-1.546 1.528-1.236 2.378.456 1.24 2.586 2.635 3.666 3.259l.416.24.403-.253c.793-.505 1.541-1.085 2.228-1.732l.013 1.555c.031 2.798.07 6.628-.07 7.567l-.005.04c-.08.545-.155 1.058-.385 1.32-.169.194-.457.354-.749.504-.288.036-1.249.133-2.112.217l-.713.071-.035 5.022.788.013c.053 0 5.26.102 8.94.102 3.357 0 3.649-.08 3.826-.129l.611-.168-.027-.633c-.03-.775-.088-2.94.01-3.631l.137-.974-.984.07c-.106.01-.216.014-.323.014-1.31 0-1.488-.51-1.904-2.276l-.053-.226c-.359-1.501-.314-8.799-.292-13.156.013-2.059.022-3.684-.005-4.437-.004-.12-.066-.722-.845-.77l-.288-.018-.988-.049c-.726-.035-1.775-.07-2.674-.07m0 1.107c.885 0 1.913.035 2.621.066l.974.049.102.004c.014.824.01 2.298-.004 4.11-.044 7.465-.005 12.052.323 13.416l.053.226c.394 1.678.74 3.126 2.985 3.13h.035c-.057.917-.013 2.53.005 3.18-.364.027-1.231.058-3.295.058-3.135 0-7.435-.076-8.608-.093l.022-2.936c.744-.075 1.576-.16 1.864-.195l.195-.022.173-.089c.358-.186.77-.412 1.076-.761.443-.51.544-1.21.646-1.887l.005-.04c.141-.947.12-4.064.08-7.74-.01-.677-.014-1.16-.014-1.55l-.022-2.559-1.85 1.762c-.59.55-1.223 1.05-1.896 1.493-.616-.363-1.205-.762-1.762-1.205-.886-.713-1.156-1.151-1.236-1.341.013-.045.053-.155.186-.346.177-.239.368-.465.571-.677.093-.102.177-.195.257-.288.815-.943 1.864-2.13 2.79-3.18l.022-.022C7.45 9.728 7.994 9.104 8.162 8.887c.155-.044.554-.088 1.546-.088M29.01 28.596c-.084 0-.169-.004-.253-.009-.81-.053-1.585-.358-2.214-.876-.987-.828-1.032-2.595-1.182-3.777-.368-2.865-.85-8.724 3.175-9.34l.03-.004c.134-.017.271-.026.404-.026 2.21 0 2.812 2.736 2.874 4.578.075 2.121.04 4.287-.2 6.399-.03.252-.062.505-.097.762-.093.646-.252 1.284-.77 1.718-.497.42-1.13.584-1.767.584v-.009zm-.053-20.71c-.558 0-1.112.036-1.665.098-.138.013-.275.03-.412.048-2.64.36-4.114 2.17-5.482 4.384C19.666 15.21 18.754 18.97 18.825 23c.049 2.816 1.036 5.708 2.71 7.935 1.917 2.555 4.552 3.959 7.426 3.959.859-.004 1.714-.12 2.542-.345 2.205-.585 4.22-2.055 5.216-4.07 1.032-2.09 1.244-4.503 1.284-6.784.044-2.608.009-5.202-.257-7.802-.026-.257-.062-.522-.106-.784-.279-1.66-.793-3.228-1.944-4.534-1.74-1.975-4.198-2.688-6.744-2.688h.005zm.053 21.817c.974 0 1.828-.292 2.484-.845.806-.682 1.032-1.599 1.147-2.41.035-.256.07-.522.101-.792.222-1.98.288-4.122.204-6.558-.026-.748-.155-2.192-.74-3.418-.31-.651-.708-1.17-1.19-1.541-.59-.456-1.28-.687-2.05-.687-.187 0-.368.014-.554.04l-.049.01c-1.554.234-3.538 1.248-4.153 4.724-.363 2.046-.146 4.317.048 5.845.018.155.036.323.058.5.137 1.258.323 2.985 1.514 3.99.806.673 1.807 1.067 2.856 1.133.107.005.217.01.324.01zm-.053-20.71c2.568 0 4.556.78 5.91 2.316.864.979 1.382 2.21 1.684 3.985.04.235.07.474.097.713.226 2.232.306 4.597.252 7.67-.035 2.023-.199 4.357-1.169 6.314-.403.815-1.04 1.572-1.837 2.179-.797.606-1.705 1.05-2.67 1.306-.735.2-1.497.301-2.259.306-1.24 0-2.462-.306-3.55-.895-1.13-.602-2.135-1.483-2.99-2.626-1.532-2.046-2.44-4.702-2.484-7.288-.066-3.817.784-7.364 2.404-9.981.554-.89 1.227-1.904 2.06-2.644.783-.7 1.62-1.089 2.63-1.222.128-.018.261-.035.385-.049.505-.053 1.018-.084 1.537-.084z" mask="url(#prefix__d)"/>
        </g>
    </g>
</svg>
