<svg role="img" id="age-icon-12" aria-hidden="true" focusable="false" xmlns="http://www.w3.org/2000/svg" xmlns:xlink="http://www.w3.org/1999/xlink" width="80" height="80" viewBox="0 0 80 80">
    <defs>
        <path id="prefix__a" d="M0 0.027L38.732 0.027 38.732 29.143 0 29.143z"/>
    </defs>
    <g fill="none" fill-rule="evenodd">
        <circle cx="40" cy="40" r="40" fill="#FFF" fill-rule="nonzero"/>
        <circle cx="40" cy="40" r="38" fill="#E5F6F6" fill-rule="nonzero"/>
        <g>
            <path fill="#000" d="M18.827 7.06L19.906 7.06 19.906 5.982 18.827 5.982z" transform="translate(21 22)"/>
            <g>
                <g transform="translate(21 22) translate(0 .005) translate(0 6.767)">
                    <mask id="prefix__b" fill="#fff">
                        <use xlink:href="#prefix__a"/>
                    </mask>
                    <path fill="#FFF" d="M26.871 7.218c.013 0 .024.001.037.004.373.111.525 1.011.427 1.758-.068.534-.456 1.195-.914 1.845.034-.514.007-1.05-.02-1.58l-.096-1.8c.234-.149.443-.227.566-.227m11.84 13.466l-.002-.194-.034-1.772-2.867-.063c-.278-.013-.543-.019-.808-.019-.38 0-1.169 0-1.925.212-1.618.452-1.95 1.539-2.004 2.146-.03.326-.047.593-.06.814-.347.004-.808.007-1.303.008 1.485-2.131 3.712-5.418 4.052-5.99 1.247-2.091 2.098-4.361 2.398-6.393.391-2.647-.158-4.858-1.587-6.393-1.768-1.906-4.247-2.958-6.98-2.963h-.022c-2.428 0-4.808.844-6.706 2.382-2.143 1.75-3.35 4.41-3.492 7.691-.005.125-.015.26-.026.401-.036.481-.076 1.026.047 1.56.177.765.653 1.328 1.375 1.628.477.199 1.06.296 1.784.296.6 0 1.219-.064 1.764-.12.318-.032.618-.063.86-.076.412-.02.782-.075 1.113-.167-.499.603-1.182 1.283-1.896 1.994l-.051.05c-1.56 1.55-2.196 3.085-2.81 4.568l-.104.25c-.058.136-.118.278-.166.74l-1.942.14h-.008c-.085.007-.165.01-.243.01-.306 0-.416-.035-.442-.046-.143-.161-.338-.99-.444-1.438l-.055-.234c-.328-1.374-.289-9.154-.27-12.894l.002-.25c.014-2.257.022-3.794-.005-4.568-.03-.824-.631-1.747-1.877-1.825l-.294-.018h-.007C13.452.137 13.095.12 12.66.1 12.302.082 11.062.026 9.886.026c-1.644 0-2.691.047-3.333.962-.138.173-.842.978-2.094 2.395l-.345.391c-.882.998-1.794 2.031-2.536 2.893-.062.072-.14.157-.222.247C.71 7.623-.37 8.808.127 10.172.72 11.785 3.02 13.3 4.339 14.058l.988.567.96-.602.008-.004c.211-.135.42-.275.625-.42.026 2.403.055 6.07-.067 6.878l-.008.064c-.039.265-.095.642-.154.789-.055.044-.157.104-.25.156-.393.043-1.15.12-1.931.196l-1.694.168-.063 7.157 1.877.032h.012l.177.003c3.6.065 6.773.1 8.938.1 3.568 0 3.881-.085 4.185-.169l1.219-.336.002.364 1.843.011.175.003c3.72.07 7.258.11 9.962.11 2.985 0 4.412-.01 4.903-.037l2.46-.067.131-1.64v-.007c.065-.853.13-2.706.074-6.69" mask="url(#prefix__b)"/>
                </g>
                <path fill="#FFDC2D" d="M19.346.04s-.388 2.274-1.556 3.84c-.127.117-.24.252-.334.401-.167.266-.253.578-.257.893 0 .794.56 1.476 1.353 1.75V5.73h1.584v1.196c.794-.275 1.353-.957 1.353-1.75C21.638 3.581 19.346.04 19.346.04" transform="translate(21 22) translate(0 .005)"/>
                <path fill="#00ABA7" d="M9.886 7.877c-1.696 0-2.179.103-2.459.518-.135.18-1.164 1.35-2.156 2.473-.952 1.078-2.035 2.3-2.874 3.275-.514.595-1.57 1.556-1.254 2.422.465 1.264 2.63 2.685 3.735 3.32l.425.244.41-.257c.808-.514 1.57-1.105 2.27-1.76l.013 1.584c.031 2.851.072 6.754-.072 7.71l-.005.04c-.081.556-.158 1.079-.392 1.345-.172.198-.465.36-.758.514-.298.036-1.272.136-2.152.221l-.726.073-.046 5.11.803.014c.055 0 5.36.104 9.109.104 3.42 0 3.717-.081 3.897-.13l.623-.172-.027-.645c-.032-.79-.09-2.996.009-3.7l.14-.992-1.002.072c-.113.01-.22.014-.329.014-1.335 0-1.516-.52-1.94-2.32l-.054-.23c-.365-1.529-.32-8.963-.298-13.402.014-2.098.023-3.754-.004-4.52-.005-.122-.068-.736-.862-.785l-.293-.018c-.248-.014-.6-.032-1.006-.05-.74-.036-1.805-.072-2.725-.072m0 1.128c.902 0 1.949.036 2.67.067.456.023.817.04.993.05l.104.004c.018.84.009 2.342-.005 4.187-.036 6.33-.036 12.135.33 13.669l.054.23c.401 1.71.753 3.185 3.036 3.19h.036c-.059.933-.013 2.575.01 3.239-.37.027-1.255.058-3.357.058-3.194 0-7.575-.076-8.77-.094l.022-2.991c.758-.077 1.606-.163 1.9-.199l.198-.023.176-.09c.365-.19.785-.42 1.096-.776.451-.518.56-1.231.659-1.921l.004-.041c.145-.965.122-4.141.082-7.886-.01-.69-.014-1.182-.014-1.579l-.022-2.607-1.886 1.795c-.6.56-1.245 1.07-1.931 1.52-.627-.37-1.227-.775-1.796-1.227-.902-.726-1.177-1.172-1.258-1.366.013-.046.054-.158.19-.352.18-.244.374-.474.581-.69.095-.104.18-.2.262-.294.83-.96 1.9-2.17 2.842-3.239l.023-.027c1.47-1.665 2.025-2.3 2.201-2.522.153-.04.564-.085 1.57-.085M27.588 7.926c-2.197-.004-4.33.754-6.04 2.139-2.116 1.727-2.982 4.28-3.095 6.897-.04.97-.311 2.112.73 2.545.38.158.858.212 1.368.212.888 0 1.867-.158 2.571-.194 2.3-.113 2.3-1.448 2.197-3.456l-.04-.767-.79.045c-.032 0-.063.005-.095.005-.067 0-.14-.005-.203-.023-.004-.14.086-.532.483-1.055.609-.808 1.511-1.372 2.197-1.372.108 0 .212.014.316.04 1.222.335 1.344 2.008 1.222 2.942-.144 1.133-1.1 2.364-1.944 3.451-.32.415-.623.808-.889 1.196-.555.816-1.489 1.741-2.472 2.72-1.489 1.48-2.04 2.932-2.68 4.47-.067.159-.22.529-.19 6.213l.005.758.776.004c.063 0 5.459.113 10.128.113 2.793 0 4.38-.009 4.859-.036l1.502-.04.054-.673c.154-2.043.068-6.609.068-6.803l-.014-.713-1.84-.04c-.199-.01-.465-.018-.772-.018-.676 0-2.729 0-2.85 1.371-.172 1.922.062 1.742-.447 1.787-.086.009-1.219.022-2.328.022-.677 0-1.345-.004-1.755-.022.708-.903 4.768-6.862 5.21-7.606 2.098-3.52 3.605-8.64.948-11.495-1.566-1.687-3.763-2.612-6.19-2.617m.005 1.133c2.107 0 4.006.798 5.355 2.242.491.528.825 1.19.992 1.976.163.758.172 1.628.032 2.594-.257 1.755-1.006 3.735-2.112 5.585-.45.758-4.475 6.654-5.129 7.484l-1.362 1.732 2.201.095c.384.018.993.022 1.805.022.83 0 2.246-.013 2.427-.027.022 0 .05-.004.077-.004.13-.005.261-.023.392-.059.334-.094.613-.33.767-.645.14-.284.149-.546.162-.911.01-.248.023-.623.072-1.187 0-.009 0-.018.005-.027.009-.013.13-.144.595-.234.42-.081.88-.081 1.128-.081.285 0 .542.009.727.018h.018l.758.018c.013 1.069.05 4.222-.05 5.986l-.483.014h-.022c-.451.022-2.067.031-4.8.031-3.582 0-7.593-.063-9.78-.104-.019-4.299.08-5.242.116-5.445l.104-.252c.578-1.39 1.078-2.594 2.315-3.826 1.024-1.015 1.989-1.976 2.607-2.883.244-.356.537-.735.844-1.132l.004-.004c.93-1.2 1.985-2.563 2.17-3.997.045-.348.122-1.25-.144-2.157-.307-1.046-.98-1.764-1.9-2.016-.198-.054-.406-.082-.613-.082-1.047 0-2.265.718-3.1 1.823-.468.623-.73 1.272-.708 1.782l.032.83.803.217c.104.027.208.045.311.05.027.653.036 1.438-.176 1.673-.126.14-.478.234-.965.257-.302.014-.636.05-.988.086-.51.054-1.042.108-1.525.108-.523 0-.794-.068-.93-.126-.017-.01-.035-.018-.053-.027-.027-.077-.04-.158-.04-.24-.005-.239.004-.482.026-.721.014-.154.023-.312.032-.47.054-1.258.293-2.4.708-3.396.451-1.079 1.114-1.98 1.971-2.68 1.503-1.232 3.38-1.895 5.324-1.89" transform="translate(21 22) translate(0 .005)"/>
            </g>
        </g>
    </g>
</svg>
