<svg id="age-icon-3" aria-hidden="true" focusable="false" xmlns="http://www.w3.org/2000/svg" width="80" height="80" viewBox="0 0 80 80">
    <g fill="none" fill-rule="evenodd">
        <circle cx="40" cy="40" r="40" fill="#FFF" fill-rule="nonzero"/>
        <circle cx="40" cy="40" r="38" fill="#E5F6F6" fill-rule="nonzero"/>
        <g>
            <path fill="#000" d="M8.517 6.819L9.559 6.819 9.559 5.777 8.517 5.777z" transform="translate(30 22)"/>
            <path fill="#FFDC2D" d="M9.022.044S8.65 2.24 7.52 3.755c-.124.115-.23.244-.319.386-.16.257-.244.559-.244.86 0 .767.541 1.423 1.308 1.694V5.542h1.52v1.157c.768-.266 1.309-.922 1.309-1.69.141-1.542-2.07-4.965-2.07-4.965" transform="translate(30 22)"/>
            <path fill="#FFF" d="M6.999 14.986c.694.013 1.14.201 1.228.303.171.594.274 1.604-.03 2.019-.043.058-.172.235-.68.244l.016.846-.054.001.06-2.126-.796-.045c-.085-.005-.172-.01-.262-.013-.007-.17-.015-.387-.021-.5.009-.304.364-.673.539-.73zm-.8 9.893l.203.002c.11 0 .256-.005.273-.005l2.227-.07-1.053-1.222c.09-.152.191-.312.268-.417.025-.01.036-.01.036-.01.08 0 .288.109.62.327.512.334.821.87.92 1.592.123.92-.049 1.76-.408 1.997-.423.277-1.079.463-1.633.463h-.021c-.264-.003-.5-.114-.72-.341-.436-.447-.73-1.269-.718-1.998l.006-.318zm13.098-1.243c-.43-1.516-1.202-2.868-2.233-3.909-.488-.497-1.047-.926-1.654-1.272.25-.452.44-.938.564-1.443.453-1.847.067-3.786-1.057-5.32l-.003-.004c-1.398-1.891-3.9-3.143-6.694-3.35-.09-.007-.17-.007-.235-.007h-.018c-.231 0-.46.027-.681.053-.191.023-.372.044-.52.044h-.03c-.033-.116-.069-.253-.102-.386l1.177-1.436-2.377.103c-.076.003-.155.003-.245.003-.18-.003-.359-.013-.548-.022-.249-.013-.506-.026-.774-.026-.58-.01-1.154.074-1.704.25l-.754.241.014.792c0 .02.038 1.988.098 3.97.129 4.269.214 4.415.383 4.707l.505.86.565.022c-.025.242-.031.532-.03.891.002.54.028 1.27.075 2.115.072 1.303.206 3.024.282 3.41l.038.19c-.396.01-.816.028-1.2.06-.411.034-.732.08-.98.139-.952.227-1.133.819-1.156 1.151L0 25.5v.038c0 .032 0 .032.034.65.1 1.815.407 7.337.455 8.466l.035.835.82.163c.106.022 2.766.331 3.347.331.716 0 1.117-.508 1.15-1.01.016-.243.05-.388.075-.467.11.01.334.054.72.214l.012.005c.34.14.725.298 1.144.396.782.187 1.58.289 2.372.303h.083c.899.007 1.787-.137 2.642-.424 3.295-1.118 5.74-3.699 6.538-6.904.347-1.393.302-2.935-.13-4.459z" transform="translate(30 22)"/>
            <path fill="#00ABA7" d="M3.857 7.728c-.465-.01-.926.057-1.37.2 0 0 .146 7.833.337 8.161l.209.355s1.214.049 1.99.049c.15 0 .284 0 .386-.005h.018s-.023-.598-.031-.745v-.03c.008-.887.89-1.792 1.578-1.792h.004c.812.009 2.026.235 2.266 1.055.195.665.82 3.591-1.707 3.64-.044-.102-.19-1.281-.058-1.281l-.798-.044c-.359-.023-.736-.031-1.108-.031-.262 0-.519.004-.772.017l-.673.027c-.328.013.11 5.874.217 6.41.558.032 1.419.103 2.057.103.098 0 .24-.005.24-.005-.138-.16.642-1.387.806-1.494.257-.16.488-.226.705-.226.395 0 .763.213 1.202.501.97.634 1.294 1.623 1.392 2.341.146 1.086-.005 2.452-.878 3.028-.594.39-1.459.638-2.217.638h-.026c-1.64-.013-2.523-1.968-2.496-3.422-.098-.005-.43-.013-.86-.013-1.198 0-3.184.057-3.206.372 0 .013.43 7.705.488 9.07.022.005 2.624.311 3.139.311.057 0 .088-.004.088-.013.067-1.042.435-1.468 1.078-1.468.323 0 .722.107 1.183.297.324.133.657.27.998.35.705.17 1.423.262 2.146.276h.066c.78.004 1.556-.12 2.297-.368 2.953-1.002 5.138-3.308 5.848-6.154.616-2.474-.244-5.502-2.089-7.364-.7-.714-1.56-1.26-2.509-1.587.554-.599.949-1.335 1.144-2.128.377-1.539.053-3.161-.882-4.438-1.22-1.65-3.436-2.74-5.928-2.922-.044-.004-.093-.004-.146-.004h-.018c-.35 0-.794.097-1.201.097-.333 0-.648-.062-.874-.297-.128-.129-.417-1.423-.412-1.423-.102.004-.2.004-.302.004-.452-.009-.882-.048-1.32-.048m-.005 1.108c.19 0 .39.009.598.018l.16.009c.168.63.288.886.496 1.1.408.416.971.629 1.667.629.262-.005.52-.023.776-.058.164-.018.324-.04.426-.04h.004c.027 0 .053 0 .076.005 1.081.08 2.128.354 3.032.798.87.43 1.592 1.006 2.084 1.675.74 1.011.993 2.293.696 3.512-.146.612-.448 1.179-.878 1.64l-1.161 1.25 1.613.555c.79.274 1.503.727 2.084 1.32.763.772 1.361 1.827 1.69 2.976.327 1.148.363 2.327.11 3.342-.62 2.483-2.536 4.496-5.13 5.378-.625.209-1.28.315-1.941.31h-.058c-.643-.008-1.281-.092-1.906-.243-.253-.058-.532-.173-.825-.297-.63-.257-1.14-.382-1.605-.382-.492 0-1.525.16-1.977 1.415-.395-.04-.865-.089-1.268-.133-.093-1.787-.28-5.196-.382-7.014l-.013-.253c.421-.04 1.055-.07 1.907-.07.053.248.12.496.204.735.235.665.585 1.25 1.02 1.698.629.648 1.414.993 2.265 1.002h.04c.975 0 2.057-.314 2.828-.824.634-.422 1.082-1.109 1.286-1.995.19-.807.146-1.592.075-2.106-.07-.546-.23-1.073-.479-1.56-.323-.635-.806-1.176-1.405-1.562-.55-.359-1.104-.678-1.804-.678-.44 0-.874.133-1.295.395-.23.146-.403.368-.559.59-.128.177-.243.367-.337.567-.08.168-.141.346-.217.519l-.28-.027c-.066-.013-.132-.031-.194-.053-.022-.01 0-.284.004-.315.005-.129.005-.257.005-.386 0-.527-.04-1.05-.071-1.574 0-.017 0-.035-.005-.053-.062-1.064-.084-1.795-.088-2.27.15-.004.306-.004.456-.004.27 0 .537.004.798.018.054.452.111.59.138.656l.288.7.758-.013c1.308-.027 2.022-.63 2.394-1.13.44-.6.648-1.388.612-2.346-.022-.536-.106-1.068-.253-1.587-.146-.497-.54-1.166-1.6-1.556-.665-.249-1.361-.293-1.716-.293h-.018c-.647 0-1.325.337-1.862.927-.439.479-.718 1.064-.802 1.64l-.47-.013c-.093-1.246-.186-4.571-.23-6.522.075-.018.159-.022.239-.022" transform="translate(30 22)"/>
        </g>
    </g>
</svg>
