<svg role="img" id="age-icon-6" aria-hidden="true" focusable="false" xmlns="http://www.w3.org/2000/svg" xmlns:xlink="http://www.w3.org/1999/xlink" width="80" height="80" viewBox="0 0 80 80">
    <defs>
        <path id="prefix__a" d="M0.022 0.031L4.178 0.031 4.178 6.681 0.022 6.681z"/>
        <path id="prefix__c" d="M0 0.04L20.188 0.04 20.188 29.386 0 29.386z"/>
    </defs>
    <g fill="none" fill-rule="evenodd">
        <circle cx="40" cy="40" r="40" fill="#FFF" fill-rule="nonzero"/>
        <circle cx="40" cy="40" r="38" fill="#E5F6F6" fill-rule="nonzero"/>
        <g>
            <path fill="#000" d="M9.583 6.832L10.626 6.832 10.626 5.788 9.583 5.788z" transform="translate(30 22)"/>
            <g>
                <g transform="translate(30 22) translate(0 .013) translate(7.99)">
                    <mask id="prefix__b" fill="#fff">
                        <use xlink:href="#prefix__a"/>
                    </mask>
                    <path fill="#FFDC2D" d="M2.095.031S1.722 2.228.59 3.742c-.124.115-.23.244-.32.386-.16.258-.244.56-.248.861 0 .768.541 1.425 1.31 1.692V5.526h1.53v1.155c.769-.267 1.31-.924 1.31-1.692C4.31 3.458 2.095.031 2.095.031" mask="url(#prefix__b)"/>
                </g>
                <g transform="translate(30 22) translate(0 .013) translate(0 6.57)">
                    <mask id="prefix__d" fill="#fff">
                        <use xlink:href="#prefix__c"/>
                    </mask>
                    <path fill="#FFF" d="M11.131 11.536c.061.537.124.883.188 1.12-.325.011-.64.042-.947.093.333-1.812.61-3.001 1.594-4.2.145-.174.268-.285.357-.351.012.24-.078.609-.2.748-.71.175-.893.729-1.002 1.06-.051.153-.121.362.01 1.53m-1.118 8.254c.158-.184.448-.299.755-.299.305 0 1.013.106 1.013 1.08 0 .778-.41.944-.756.945-.443-.004-.836-.252-1.027-.648-.059-.122-.101-.259-.126-.406-.043-.291.003-.511.141-.672m8.947-3.27l-.033-.057c-.03-.05-.064-.106-.104-.168-.534-.828-1.336-1.59-2.305-2.198.58-.025 1.08-.14 1.521-.35l.005-.003c1.896-.912 2.157-3.546 2.144-5.038-.026-2.272-.87-4.488-2.313-6.079-.668-.736-1.568-1.357-2.604-1.794C14.024.307 12.591.04 11.009.04h-.025c-.753.005-1.5.06-2.219.161C7.355.398 6.142.98 5.058 1.98c-1.014.934-1.782 2.115-2.4 3.147C.873 8.11-.07 12.099.005 16.354c.053 3.049 1.087 6.184 2.84 8.6 2.068 2.858 4.943 4.432 8.093 4.432h.006c.935-.005 1.861-.135 2.751-.385 2.723-.75 5.009-2.723 5.967-5.15.408-1.036.54-2.406.37-3.857-.155-1.324-.546-2.59-1.071-3.475" mask="url(#prefix__d)"/>
                </g>
                <path fill="#00ABA7" d="M11.021 29.15c-.847-.004-1.615-.488-1.984-1.251-.106-.222-.177-.457-.217-.701-.218-1.43.856-2.202 1.948-2.202 1.03 0 2.078.683 2.078 2.144 0 1.367-.883 2.01-1.825 2.01m-.03-21.475c-.693.004-1.39.053-2.078.15-2.57.36-4.004 2.185-5.34 4.418C1.886 15.06.998 18.848 1.069 22.905c.05 2.837 1.012 5.753 2.637 7.995 1.864 2.574 4.435 3.99 7.231 3.99.835-.004 1.67-.12 2.473-.346 2.406-.661 4.42-2.388 5.26-4.514.746-1.891.27-4.888-.626-6.397-.04-.067-.076-.129-.116-.19-1.18-1.83-3.84-3.157-6.325-3.157-.928 0-1.771.182-2.49.533.035-.564.102-1.123.208-1.678.355-1.931.675-3.303 1.825-4.701.426-.515.879-.812 1.252-.812 1.42 0 1.118 2.277.297 2.792-.404.253-.39-.031-.564.492-.058.174.142 2.224.315 2.233l.622.036c.293.018.701.093 1.132.173.652.12 1.394.253 2.064.253.528 0 .963-.084 1.318-.253 1.42-.684 1.55-3.067 1.54-4.066-.022-1.936-.727-3.933-2.037-5.376-.985-1.087-2.925-2.241-6.095-2.237m.031 22.585c.786 0 1.51-.288 2.042-.807.737-.724.893-1.656.893-2.313 0-1.256-.555-2.02-1.017-2.442-.577-.523-1.35-.812-2.166-.812-.954 0-1.829.386-2.406 1.057-.55.643-.781 1.504-.64 2.423.054.355.16.697.316 1.021.55 1.141 1.709 1.865 2.978 1.873m-.03-21.475c1.296 0 2.454.208 3.435.626.946.4 1.527.905 1.851 1.26.56.626.999 1.354 1.283 2.14.297.799.453 1.647.466 2.499.018 1.558-.346 2.783-.91 3.05-.2.097-.484.146-.839.146-.572 0-1.26-.124-1.869-.235-.39-.071-.759-.138-1.083-.173-.03-.236-.057-.497-.075-.71l.04-.027c.48-.302.852-.84 1.056-1.514.187-.621.2-1.265.045-1.811-.271-.932-1.035-1.514-1.989-1.514-.715 0-1.465.43-2.109 1.217-1.313 1.598-1.682 3.165-2.06 5.202-.115.6-.19 1.207-.226 1.82l-.102 1.887 1.696-.83c.573-.28 1.247-.422 2.006-.422 2.1 0 4.417 1.14 5.394 2.65.03.049.062.097.093.155.746 1.256 1.15 3.902.546 5.42-.346.875-.946 1.696-1.731 2.37-.808.693-1.763 1.2-2.788 1.479-.71.2-1.443.302-2.18.306-1.202 0-2.383-.306-3.43-.892-1.097-.604-2.074-1.492-2.904-2.641-1.496-2.06-2.38-4.741-2.424-7.36-.066-3.853.768-7.431 2.349-10.077.537-.896 1.194-1.917 2.006-2.663.76-.697 1.563-1.088 2.535-1.225.63-.089 1.274-.138 1.917-.133" transform="translate(30 22) translate(0 .013)"/>
            </g>
        </g>
    </g>
</svg>
