<svg role="img" id="age-icon-4" aria-hidden="true" focusable="false" xmlns="http://www.w3.org/2000/svg" width="80" height="80" viewBox="0 0 80 80">
    <g fill="none" fill-rule="evenodd">
        <circle cx="40" cy="40" r="40" fill="#FFF" fill-rule="nonzero"/>
        <circle cx="40" cy="40" r="38" fill="#E5F6F6" fill-rule="nonzero"/>
        <g>
            <path fill="#000" d="M9.969 6.819L11.011 6.819 11.011 5.777 9.969 5.777z" transform="translate(29 22)"/>
            <path fill="#FFDC2D" d="M10.47.044s-.373 2.195-1.503 3.707c-.124.115-.23.244-.32.385-.16.258-.243.56-.248.86 0 .768.541 1.424 1.308 1.69V5.533h1.53v1.153c.767-.266 1.308-.922 1.308-1.69C12.686 3.464 10.47.045 10.47.045" transform="translate(29 22)"/>
            <path fill="#FFF" d="M19.946 20.487l-.95.05c-.013.001-1.03.055-2.293.108v-3.056l-6.699.076-.308 2.545c-.305-.093-.575-.238-.735-.462-.004-.289.12-1.571 1.864-6.075 1.032-2.665 2.115-5.123 2.126-5.148l.618-1.402-8.887-.522-.227.834C4.425 7.55 1.318 18.95.564 21.096c-.776 2.204-.75 3.913.075 5.08.692.977 1.884 1.493 3.446 1.493.133 0 .26-.005.361-.01h.005c.48-.023 1.918-.034 4.396-.034h.21l-.552 8.15 1.09.047c.13.005 3.226.138 4.962.138 1.016 0 1.296-.032 1.578-.18l.568-.3v-7.837c1.844.008 3.16.017 3.176.018l1.265.009-1.198-7.183z" transform="translate(29 22)"/>
            <path fill="#00ABA7" d="M5.482 7.714S2.343 19.241 1.567 21.45c-1.565 4.447.843 5.156 2.518 5.156.107 0 .213-.004.315-.008.554-.027 2.23-.036 4.447-.036h1.348L9.64 34.76s3.183.137 4.916.137c.581 0 .998-.013 1.082-.058v-8.264c2.412.01 4.247.023 4.247.023l-.833-4.997s-1.667.089-3.414.15v-3.085l-4.69.053-.329 2.705c-1.773-.08-2.39-.785-2.642-1.242-.75-1.325 4-12.085 4-12.085l-6.496-.382zm.83 1.157l4.02.24c-.452 1.06-1.077 2.576-1.671 4.136-.647 1.69-1.13 3.095-1.441 4.186-.576 2.021-.497 2.78-.208 3.294.274.483.669.886 1.148 1.166.634.376 1.445.594 2.412.634l1.028.044.124-1.02.213-1.742 2.603-.031v3.108l1.143-.04c.91-.031 1.8-.071 2.448-.102l.452 2.726-2.935-.013-1.113-.004v8.326c-1.05 0-2.638-.053-3.706-.093l.474-7.054.08-1.18H8.847c-2.55 0-3.981.014-4.504.04-.09.005-.173.005-.258.005-.576 0-1.338-.097-1.675-.576-.382-.541-.31-1.645.204-3.104.665-1.884 2.948-10.197 3.697-12.946z" transform="translate(29 22)"/>
        </g>
    </g>
</svg>
