<svg role="img" id="icon-right" aria-labelledby="icon-right" xmlns="http://www.w3.org/2000/svg" width="40" height="40" viewBox="0 0 40 40">
    <g fill="none" fill-rule="evenodd">
        <g fill="#FFD406">
            <g>
                <g>
                    <g>
                        <g>
                            <path d="M11.635 30.174c.066-.14.234-.259.492-.139l16.659 8.409c.324.151.568.726.598 1.074.018.202-.032.345-.148.426-.073.05-.198.093-.384.006l-16.657-8.408c-.258-.12-.485-.547-.566-.887-.034-.142-.06-.34.006-.481zm2.779-12.006l16.754 2.823c.153 0 .31.073.45.213.232.23.401.61.402.906 0 .15-.043.274-.127.359-.075.075-.176.115-.295.115l-16.754-2.823c-.235.001-.475-.176-.656-.487-.075-.127-.133-.272-.166-.407-.048-.203-.036-.376.034-.5.074-.128.201-.199.358-.2zM23.41.098c.387-.246.87.004 1.113.389.241.38.182.778-.15.987L9.262 11.055c-.387.246-.87-.005-1.114-.389-.242-.381-.182-.778.15-.988z" transform="translate(-1092 -7434) translate(130 7293) translate(744 41) translate(33 100) translate(185)"/>
                        </g>
                    </g>
                </g>
            </g>
        </g>
    </g>
</svg>
