<svg role="img" id="icon-left" aria-labelledby="icon-left" xmlns="http://www.w3.org/2000/svg" width="40" height="40" viewBox="0 0 40 40">
    <g fill="none" fill-rule="evenodd">
        <g fill="#FFD406">
            <g>
                <g>
                    <g>
                        <path d="M31.778 30.05c.066.141.04.336.007.476-.08.336-.304.758-.56.876l-16.444 8.3c-.183.086-.307.044-.379-.006-.114-.08-.163-.22-.146-.42.03-.344.27-.911.591-1.06l16.446-8.302c.255-.119.42 0 .485.137zm-2.743-11.852c.155 0 .28.07.353.196.07.123.082.294.034.494-.032.134-.09.277-.164.402-.179.307-.415.482-.648.481L8.782 20.914c-.116 0-.216-.04-.29-.114-.083-.083-.127-.206-.126-.354.001-.292.168-.668.396-.895.14-.138.294-.21.446-.21l19.827-1.143zM14.44.565l17.185 4.098c.376.09.56.441.456.875-.104.436-.475.825-.915.72L13.982 2.16c-.377-.09-.56-.441-.456-.874.103-.437.474-.826.914-.721z" transform="translate(-907 -7434) translate(130 7293) translate(744 41) translate(33 100)"/>
                    </g>
                </g>
            </g>
        </g>
    </g>
</svg>
