<svg role="img" id="conception-inactive" aria-hidden="true" focusable="false" xmlns="http://www.w3.org/2000/svg" width="25" height="24" viewBox="0 0 25 24">
    <path fill="#00B2A9" fill-rule="evenodd" d="M22.534 2.898C20.73 1.108 17.5.422 15.14 1.42c-1.768.749-3.01 2.657-3.229 4.577-1.248-2.314-2.857-4.548-5.73-4.76C2.981 1 .492 3.179.232 6.314c-.272 3.287 1.695 6.562 3.67 9.055.933 1.179 1.999 2.244 3.153 3.21.668.559 1.363 1.084 2.079 1.582.588.409 1.278 1.037 1.987 1.191.33.072.4-1.001 0-1.088-.609-.132-1.332-.798-1.841-1.152-.54-.376-1.069-.766-1.582-1.176-1.01-.805-1.954-1.691-2.808-2.658-1.874-2.12-3.859-5.012-4.114-7.885-.294-3.311 2.577-5.426 5.71-5.038 2.915.36 4.348 3.024 5.54 5.375.288.569.48-.442.43-.66-.331-1.488.812-3.23 1.96-4.103 1.12-.85 2.623-1.025 3.987-.844 2.955.39 5.523 2.456 5.24 5.627-.274 3.05-2.943 5.494-4.908 7.628-2.074 2.252-4.293 4.353-6.713 6.241-.294.23-.138 1.271.146 1.05 2.416-1.885 4.644-3.972 6.72-6.217 2.016-2.179 4.372-4.454 5.103-7.419.518-2.101.13-4.559-1.457-6.135"/>
</svg>
