<svg role="img" id="conception-active" aria-hidden="true" focusable="false" xmlns="http://www.w3.org/2000/svg" width="25" height="24" viewBox="0 0 25 24">
    <path fill="#FFF" fill-rule="evenodd" d="M22.498 2.898c-1.803-1.79-5.034-2.476-7.392-1.478-1.769.749-3.01 2.657-3.23 4.577-1.247-2.314-2.857-4.548-5.73-4.76C2.947 1 .457 3.179.197 6.314c-.271 3.287 1.695 6.562 3.67 9.055.934 1.179 2 2.244 3.154 3.21.667.559 1.363 1.084 2.078 1.582.588.409 1.279 1.037 1.988 1.191.33.072.4-1.001 0-1.088-.61-.132-1.332-.798-1.842-1.152-.54-.376-1.068-.766-1.582-1.176-1.009-.805-1.953-1.691-2.807-2.658C2.98 13.158.996 10.266.74 7.393.447 4.082 3.317 1.967 6.45 2.355c2.916.36 4.348 3.024 5.54 5.375.289.569.48-.442.431-.66-.332-1.488.811-3.23 1.96-4.103 1.12-.85 2.623-1.025 3.986-.844 2.955.39 5.524 2.456 5.24 5.627-.273 3.05-2.942 5.494-4.907 7.628-2.075 2.252-4.294 4.353-6.713 6.241-.294.23-.138 1.271.146 1.05 2.415-1.885 4.643-3.972 6.72-6.217 2.015-2.179 4.371-4.454 5.103-7.419.518-2.101.13-4.559-1.458-6.135"/>
</svg>
