<svg role="img" id="cycle-active" aria-hidden="true" focusable="false" xmlns="http://www.w3.org/2000/svg" width="25" height="24" viewBox="0 0 25 24">
    <path fill="#FFF" fill-rule="evenodd" d="M13.145.078c.33-.376.516.71.283.976-2.337 2.657-4.785 5.38-6.486 8.512-1.679 3.093-2.96 7.477-.36 10.433 1.966 2.233 6.282 3.887 8.922 2.077 2.711-1.86 4.118-5.614 3.1-8.793-.558-1.743-1.635-3.31-2.548-4.877l-2.99-5.137c-.183-.313.076-1.346.395-.799 1.427 2.45 2.872 4.892 4.28 7.353 1.018 1.78 1.765 3.601 1.751 5.684-.02 3.183-1.776 7.153-4.974 8.263-1.652.573-3.736-.022-5.285-.706-1.522-.672-2.898-1.746-3.737-3.215-1.873-3.282-.758-7.513.833-10.669C8.032 5.8 10.67 2.893 13.145.078zM8.424 12.48c.299-.359.413.462.402.618-.132 1.776 1.098 3.47 2.735 4.064.297.108.246.825.066 1-.512.496-.995.981-1.16 1.703-.032.14-.147.316-.31.251-2.737-1.082-4.33-4.431-2.313-6.941l.58-.695zm-.106 1.403l-.198.236c-1.575 1.961.115 4.022 1.974 4.854.143-.408.362-.758.628-1.084-1.418-.824-2.235-2.383-2.404-4.006z"/>
</svg>
