<svg role="img" xmlns="http://www.w3.org/2000/svg" width="25" height="24" viewBox="0 0 25 24">
    <path fill="#00B2A9" fill-rule="evenodd" d="M13.155.078c.33-.376.516.71.283.976-2.337 2.657-4.785 5.38-6.486 8.512-1.678 3.093-2.96 7.477-.36 10.433 1.967 2.233 6.283 3.887 8.923 2.077 2.71-1.86 4.117-5.614 3.1-8.793-.56-1.743-1.635-3.31-2.548-4.877l-2.991-5.137c-.183-.313.077-1.346.395-.799 1.427 2.45 2.872 4.892 4.28 7.353 1.018 1.78 1.765 3.601 1.752 5.684-.021 3.183-1.777 7.153-4.975 8.263-1.651.573-3.736-.022-5.284-.706-1.523-.672-2.9-1.746-3.738-3.215-1.873-3.282-.758-7.513.833-10.669C8.042 5.8 10.68 2.893 13.155.078zM8.434 12.48c.3-.359.413.462.402.618-.132 1.776 1.098 3.47 2.736 4.064.296.108.245.825.065 1-.512.496-.995.981-1.16 1.703-.032.14-.147.316-.31.251-2.737-1.082-4.33-4.431-2.313-6.941l.58-.695zm-.106 1.403l-.198.236c-1.575 1.961.115 4.022 1.974 4.854.143-.408.362-.758.628-1.084-1.418-.824-2.235-2.383-2.404-4.006z"/>
</svg>
