<svg id="cgp-icon" aria-hidden="true" focusable="false" xmlns="http://www.w3.org/2000/svg" width="76" height="76" viewBox="0 0 76 76">
    <path fill="#00B2A9" fill-rule="evenodd" d="M31.608 4.59c.153-.06.282-.025.386.068 8.339-.07 16.68.196 25.019.003.723-.017.755 1.984.076 2.145.062.2.09.424.06.651-.044.336-.155.653-.313.957.004.05.008.1.008.156 0 7.04.394 14.192 0 21.221-.02.37-.125.63-.261.788.208.488.065 1.253-.171 1.602-1.604 2.375-3.983 4.309-6.124 6.197-.62.546-1.362.994-1.933 1.595-.299.313-.585.972-.936 1.207-.734.492-1.027.321-1.976.35-.761.024-1.525.032-2.287.048-.039.061-.081.115-.133.153-.585.436-2.368 1.29-2.894 2.015.806-1.04 4.592-.378 5.747-.387 3.93-.027 7.783.037 11.698.414 2.025.194 3.88.044 5.897-.102 1.63-.118 1.605-.853 2.742-1.918 2.119-1.986 5.008-3.262 7.556-4.762-6.137.08-12.273-.14-18.41-.082-.756.007-.756-2.154 0-2.161 6.693-.063 13.383.208 20.076.057.723-.016.755 1.982.078 2.145.085.518.013 1.16-.284 1.392.023.11.038.233.038.373 0 7.04.394 14.192 0 21.221-.02.369-.126.63-.261.788.208.487.064 1.252-.172 1.601-1.603 2.375-3.983 4.31-6.124 6.198-.619.546-1.362.993-1.933 1.594-.298.313-.584.973-.935 1.208-.734.492-1.028.32-1.976.35-6.768.21-13.584.112-20.364.042-1.41-.015-4.587 1.037-5.08-.929-.141-.56.102-1.272.128-1.836.087-1.9-.073-3.833-.085-5.737-.04-6.408.67-12.89.209-19.26-.027-.373.096-.747.266-.998.19-.484.546-.922.983-1.32-2.189.023-4.38.02-6.57.008-.034.043-.072.081-.114.11-1.951 1.295-3.78 2.847-5.75 4.098-1.73 1.099-4.144.66-6.23.666-3.23.008-6.46-.026-9.69-.05-3.12-.024-6.579.438-9.659-.06-.177-.03-.341-.067-.498-.11.111 3.542-.131 7.042-.212 10.617-.103 4.584.21 9.23-.067 13.8.734.205 2.107-.147 2.62-.162.87-.027 1.736.008 2.605.024 2.138.04 4.285.12 6.424.074 4.125-.086 8.281.056 12.395-.118.578-.025.952-.06 1.24-.142-.021-6.84.177-13.679.184-20.52 0-1.303 1.086-1.292 1.085 0-.007 6.578-.186 13.152-.18 19.729.144-.154.31-.332.513-.543.66-.684 1.397-1.3 2.096-1.943 1.833-1.683 3.823-3.31 5.436-5.21.617-.728.987 1.348.548 1.865-1.416 1.668-3.145 3.106-4.753 4.584-.745.684-1.505 1.357-2.235 2.057-.547.523-1.098 1.524-1.672 1.909-1.733 1.161-5.55.39-7.558.377-3.971-.025-7.931.137-11.904.068-1.762-.031-3.493-.015-5.246.066-.764.035-1.908.27-2.464-.402-.377-.457-.225-1.062-.218-1.596.02-1.503.052-3.023.033-4.538-.088-6.878.642-13.85.221-20.693-.158-.232-.264-.522-.295-.9-.13-1.632 1.295-1.788 2.418-2.496 1.663-1.05 3.2-2.329 4.71-3.588 1.434-1.196 2.694-3.04 4.671-2.818l.002.001c2.037-.012 4.074.025 6.11.027.759.001.752 2.162 0 2.161-2.156-.003-4.312-.047-6.467-.028l-.03-.005c-1.972.154-4.21 2.993-5.666 4.145-.828.656-1.702 1.21-2.575 1.796-.116.078-.447.285-.812.5 1.001.094 2.175-.075 2.864-.08 1.754-.013 3.506-.03 5.26-.017 3.257.023 6.515.058 9.772.06 1.658 0 3.316-.002 4.973-.04 1.07-.024 1.27-.19 2.042-.703.966-.644 1.914-1.318 2.861-1.993-1.688-.015-3.376-.034-5.061-.052-1.41-.015-4.587 1.038-5.08-.929-.142-.56.102-1.271.128-1.835.087-1.9-.074-3.834-.086-5.737-.04-6.409.671-12.892.21-19.262-.039-.522.219-1.048.49-1.228.824-1.52 3.076-2.876 4.236-3.854 1.906-1.608 3.895-2.992 6.19-3.953.075-.069.163-.112.265-.113.063-.023.118-.05.175-.072zm42.575 34.412c-1.897 1.166-3.87 2.209-5.73 3.432-1.191.783-1.855 1.597-2.803 2.592-.32.336-.412.525-.803.699 0 7.051.017 14.102.047 21.153.006 1.305-1.08 1.291-1.085 0-.03-6.993-.046-13.987-.048-20.98-.44-.002-.892-.041-1.24-.015-1.354.1-2.527.251-3.895.154-2.831-.204-5.62-.526-8.464-.547-2.85-.02-5.718.156-8.566-.005-.636-.036-1.271-.006-1.781-.18.111 3.541-.131 7.04-.21 10.615-.104 4.587.208 9.236-.07 13.81 1.042.33 3.568-.17 4.416-.159 1.741.02 3.482.074 5.224.092 3.832.038 7.652-.238 11.488-.105.965.034 3.41.381 4.358-.041.648-.287 1.467-1.517 2.02-1.993 2.37-2.043 5.126-4.141 6.975-6.698.043-.182.11-.334.198-.43-.029-.129-.042-.28-.032-.46.388-6.934.013-13.987.001-20.934zm-52.741 9.637c.538-.018.577 1.064.523 1.367-.376 2.117-1.114 4.213-1.665 6.294-.11.415-.376.651-.742.387-.377-.272-.294-1.1-.195-1.478.231-.874.505-1.755.767-2.637-.78.73-1.538 1.477-2.305 2.238-.729.722-1.456 1.443-2.159 2.189-.34.362-1.05.914-1.462 1.446.348.642.562 1.41.613 2.289.198 3.435-2.036 6.807-5.646 7.146-3.815.359-5.763-3.08-4.848-6.42.066-.24.144-.38.228-.451-.003-.066-.003-.135 0-.21.16-2.782 2.42-4.227 5.063-4.5 1.47-.151 2.711.194 3.614.943.716-1.394 2.423-2.682 3.44-3.694.735-.732 1.463-1.458 2.203-2.172-.328.1-.649.194-.957.266-.999.233-2.03.538-3.05.64-.719.072-.776-2.083 0-2.161 1.02-.102 2.051-.406 3.05-.64 1.148-.268 2.36-.805 3.528-.842zm24.986 3.505c.63-3.437 3.978-6.067 7.528-5.123 3.26.865 4.203 4.372 2.854 7.176-.154.321-.31.366-.446.26.048.236.06.472.016.654-.507 2.055-2.425 2.967-4.396 3.1-.022 1.124-.022 2.254.004 3.385 1.273-.033 2.544-.042 3.807.037.776.05.73 2.208 0 2.161-1.24-.078-2.487-.07-3.736-.04.024.565.05 1.129.08 1.69.07 1.311-1.017 1.276-1.086 0-.03-.551-.054-1.105-.078-1.659-1.336.044-2.672.095-4 .084-.762-.006-.75-2.167 0-2.161 1.305.011 2.617-.038 3.93-.081-.027-1.143-.028-2.285-.006-3.421-.261-.019-.52-.048-.77-.091-3.005-.529-4.225-3.102-3.7-5.97zm-33.65 6.964c-.99-.843-2.582-.784-3.792-.554-1.043.198-3.273.914-3.349 2.246-.029.502-.212.808-.42.92.078.289.105.602.043.832-.881 3.215 3.738 3.587 5.675 2.683 2.111-.987 4.056-4.245 1.844-6.127zm43.265-6.439c1.76-3.658-3.983-4.026-5.804-3.185-2.07.955-4.347 4.447-1.504 6.021 1.774.982 6.106.957 6.707-1.484.144-.581.369-.603.566-.381-.067-.365-.069-.755.035-.97zm-.276-42.936c-1.44 1.307-3.647 2.268-4.946 3.013-2.526 1.448-5.011 2.533-7.955 2.666-3.445.156-6.936.047-10.386.068-1.733.01-3.466.013-5.198-.014-1.73-.026-3.881.218-5.555-.23-.12-.031-.23-.07-.335-.112.114 3.553-.13 7.065-.211 10.652-.103 4.586.21 9.235-.068 13.81 1.041.33 3.567-.17 4.416-.16 1.74.02 3.481.074 5.223.092 3.833.039 7.654-.237 11.488-.105.907.032 3.117.34 4.17.029-.006-.06-.011-.123-.012-.19-.025-7.28.119-14.56.124-21.84.001-1.303 1.087-1.292 1.086 0-.006 7.071-.139 14.14-.124 21.21.411-.449.817-.969 1.134-1.243 2.37-2.043 5.127-4.14 6.976-6.698.042-.182.11-.333.197-.43-.029-.129-.042-.28-.032-.46.372-6.643.045-13.394.008-20.058zm-20.44 24.26l.061.001c.312.07.632.1.934.206.368.129.603.395.797.72.25.422.202 1.106 0 1.529-.066.138-.21.317-.384.317-.185 0-.303-.18-.383-.317.054.093-.02-.006-.054-.045-.01-.004-.035-.02-.049-.027-.074-.04-.18-.085-.241-.102-.02-.006-.046-.01-.068-.014-.014 0-.027.01-.04.007l-.512-.113c-.456-.1-.533-.69-.543-1.08-.004-.243.045-.546.16-.764.053-.103.22-.352.383-.317zm-7.622-14.285c.953-4.531 8.45-2.507 10.93-.323 1.306 1.15 1.852 2.812 1.48 4.514-.25 1.142-.874 2.099-1.766 2.848-.477.4-1.005.587-1.5.929-1.143.789-1.38 1.87-1.602 3.142-.25 1.434-1.223.437-1.046-.574.202-1.155.207-2.65.953-3.632 1.09-1.435 5.015-1.824 3.635-4.635-.654-1.332-3.071-2.08-4.383-2.401-1.166-.285-5.298-.99-5.654.706-.299 1.418-1.26.438-1.047-.574zM34.61 6.805l-3.071.016c-2.01.827-3.79 1.964-5.486 3.334-1.065.863-2.077 1.79-3.102 2.699-.106.093-.262.259-.431.437 1.535.234 3.542-.005 4.76.014 1.733.028 3.466.025 5.2.014 3.598-.023 7.259.124 10.85-.087 2.977-.175 5.518-1.575 8.028-3.05.912-.534 4.598-2.199 4.745-3.299l.008-.046c-8.19.158-16.382-.096-24.572-.016z"/>
</svg>